#!OML:ASF F:\VICON\USERDATA\INSTALL\Justin_Nancy\Justin_Nancy.ASF
:FULLY-SPECIFIED
:DEGREES
1
root 12.5602 17.5346 -27.7372 -2.1508 -0.442346 -1.59766
lowerback 6.90394 -1.54257 0.802945
upperback -0.0382777 -1.80223 4.8569
thorax -3.78388 -0.868312 4.78425
lowerneck -15.8718 -3.73757 -9.79857
upperneck 22.7221 -3.5388 3.5968
head 10.1254 -2.07314 2.42912
rclavicle -8.24956e-015 1.90833e-014
rhumerus -39.4008 -23.4875 -68.4343
rradius 24.8692
rwrist 12.0972
rhand -17.6479 12.4768
rfingers 7.12502
rthumb 8.61013 -17.3276
lclavicle -8.24956e-015 1.90833e-014
lhumerus -27.0936 9.78874 87.3506
lradius 29.5394
lwrist -7.79927
lhand -16.9363 31.0694
lfingers 7.12502
lthumb 9.29685 60.8444
rfemur -9.99029 8.11119 27.6885
rtibia 27.104
rfoot -10.122 -2.23952
rtoes 1.2024
lfemur -18.3159 1.82737 -16.3955
ltibia 67.1606
lfoot -2.65493 -2.69648
ltoes -5.37851
2
root 12.5546 17.54 -27.4886 -2.18229 -0.675282 -1.65026
lowerback 7.19554 -1.3087 1.12923
upperback 0.124572 -1.46771 4.62233
thorax -3.81766 -0.710319 4.32453
lowerneck -17.0295 -4.04196 -9.42482
upperneck 22.9653 -3.92223 3.49914
head 10.4506 -2.22038 2.2671
rclavicle -1.53064e-014 -4.77083e-015
rhumerus -38.5609 -23.3708 -69.4421
rradius 25.6173
rwrist 11.1093
rhand -17.381 12.081
rfingers 7.12502
rthumb 8.86767 -17.7127
lclavicle -1.53064e-014 -4.77083e-015
lhumerus -27.0246 8.78868 87.4915
lradius 29.0349
lwrist -7.78998
lhand -22.8774 12.5859
lfingers 7.12502
lthumb 3.56154 42.5359
rfemur -9.04556 7.87873 28.0253
rtibia 27.3023
rfoot -11.0383 -2.40646
rtoes -1.7159
lfemur -19.6213 2.04912 -16.34
ltibia 66.5001
lfoot -3.58721 -1.95089
ltoes -3.05242
3
root 12.5513 17.5325 -27.241 -2.15144 -0.807087 -1.8335
lowerback 7.92096 -1.3012 1.50445
upperback -0.51965 -1.36888 4.50391
thorax -4.91719 -0.657425 4.0214
lowerneck -16.1766 -3.96173 -9.09372
upperneck 22.8467 -3.92912 3.25472
head 10.2322 -2.23081 2.13317
rclavicle -2.34939e-014 1.27222e-014
rhumerus -38.9622 -21.7021 -70.4486
rradius 26.8234
rwrist 9.47852
rhand -17.5289 10.7324
rfingers 7.12502
rthumb 8.72494 -19.0672
lclavicle -2.34939e-014 1.27222e-014
lhumerus -28.6506 7.87308 87.5487
lradius 28.6656
lwrist -5.88343
lhand -18.8705 30.9943
lfingers 7.12502
lthumb 7.43017 60.8438
rfemur -7.96623 7.87931 28.3774
rtibia 27.0429
rfoot -11.7893 -2.54017
rtoes -0.708963
lfemur -21.0635 2.22539 -16.1748
ltibia 65.9341
lfoot -4.80786 -1.40549
ltoes -3.8411
4
root 12.5487 17.4973 -27.0069 -2.02291 -1.32652 -2.15145
lowerback 7.10507 -1.104 1.62609
upperback -0.317353 -1.13135 4.73363
thorax -4.25719 -0.545942 4.13476
lowerneck -14.8853 -3.96589 -9.26004
upperneck 21.7957 -3.98723 3.17087
head 9.62112 -2.27594 2.13359
rclavicle 1.18028e-015 1.90833e-014
rhumerus -38.0055 -20.1394 -71.5206
rradius 27.7973
rwrist 7.39589
rhand -17.9491 9.78333
rfingers 7.12502
rthumb 8.31947 -20.0328
lclavicle 1.18028e-015 1.90833e-014
lhumerus -28.9793 6.96105 88.3703
lradius 27.9875
lwrist -3.0449
lhand -20.1659 38.0824
lfingers 7.12502
lthumb 6.1797 67.9723
rfemur -7.1035 8.43432 28.8138
rtibia 26.904
rfoot -12.4427 -2.47422
rtoes 1.89321
lfemur -22.6945 2.72714 -15.8439
ltibia 65.3374
lfoot -6.13722 -1.02179
ltoes -5.54915
5
root 12.542 17.4635 -26.7649 -1.90504 -2.09469 -2.46703
lowerback 6.81351 -0.888972 1.75709
upperback -0.522196 -0.83015 4.90549
thorax -4.3241 -0.396082 4.20724
lowerneck -13.4096 -3.82686 -9.52139
upperneck 21.4972 -3.90543 3.26619
head 9.24432 -2.25846 2.23813
rclavicle 1.36043e-014 -3.18055e-015
rhumerus -37.9683 -18.6385 -72.0942
rradius 28.6064
rwrist 6.40145
rhand -17.6078 9.62113
rfingers 7.12502
rthumb 8.64887 -20.1817
lclavicle 1.36043e-014 -3.18055e-015
lhumerus -30.2229 6.17805 88.924
lradius 27.7213
lwrist -0.524766
lhand -21.8073 31.0263
lfingers 7.12502
lthumb 4.59486 60.9565
rfemur -6.16595 9.02933 29.3415
rtibia 26.7127
rfoot -12.9784 -2.63715
rtoes 1.95634
lfemur -24.1856 3.45389 -15.4616
ltibia 64.5111
lfoot -7.25733 -0.810858
ltoes -5.58694
6
root 12.5313 17.4446 -26.5157 -1.85723 -2.37141 -2.70958
lowerback 6.9852 -0.849028 2.04617
upperback -0.853517 -0.729342 4.83689
thorax -4.77806 -0.35018 3.97365
lowerneck -12.4614 -3.73459 -9.55611
upperneck 21.4938 -3.91053 3.43166
head 9.07035 -2.25625 2.31272
rclavicle 1.36043e-014 -1.43125e-014
rhumerus -38.1767 -17.8326 -72.5503
rradius 29.3818
rwrist 6.45429
rhand -16.8596 9.46742
rfingers 7.12502
rthumb 9.37083 -20.3043
lclavicle 1.36043e-014 -1.43125e-014
lhumerus -31.4595 5.81799 88.9379
lradius 27.3203
lwrist 1.08044
lhand -23.5546 24.1346
lfingers 7.12502
lthumb 2.90753 54.0946
rfemur -5.07414 9.22277 29.8589
rtibia 26.447
rfoot -13.6048 -3.05057
rtoes 2.73324
lfemur -25.3828 3.77852 -15.1921
ltibia 63.3934
lfoot -8.26361 -0.35519
ltoes -7.26351
7
root 12.5202 17.4314 -26.2759 -1.88665 -2.28711 -2.76965
lowerback 8.10716 -0.901783 2.36259
upperback -1.50361 -0.690847 4.54451
thorax -6.10868 -0.338126 3.53016
lowerneck -12.1924 -3.64515 -9.30666
upperneck 21.9749 -3.92751 3.63633
head 9.18365 -2.23441 2.34673
rclavicle -1.98785e-015 -3.18055e-015
rhumerus -38.6809 -16.9381 -73.2021
rradius 30.1371
rwrist 5.93247
rhand -16.936 9.00769
rfingers 7.12502
rthumb 9.29711 -20.7673
lclavicle -1.98785e-015 -3.18055e-015
lhumerus -32.7026 7.53305 87.3115
lradius 26.7303
lwrist -4.50889
lhand -20.3734 25.7923
lfingers 7.12502
lthumb 5.97935 55.6879
rfemur -3.99974 9.13974 30.1822
rtibia 26.2499
rfoot -14.3708 -3.40077
rtoes 3.31759
lfemur -26.4281 3.68176 -15.1662
ltibia 61.9998
lfoot -9.1131 0.554482
ltoes -9.66098
8
root 12.5107 17.4137 -26.0391 -1.82382 -2.30396 -2.84549
lowerback 7.49748 -0.769611 2.28804
upperback -1.00875 -0.575615 4.63517
thorax -5.24344 -0.281277 3.62357
lowerneck -12.5404 -3.74439 -9.42343
upperneck 21.4756 -4.03224 3.80856
head 9.08888 -2.26177 2.40539
rclavicle 7.01958e-015 -6.36111e-015
rhumerus -37.1676 -16.3541 -73.9158
rradius 30.7278
rwrist 5.41177
rhand -17.3292 8.87875
rfingers 7.12502
rthumb 8.91771 -20.9128
lclavicle 7.01958e-015 -6.36111e-015
lhumerus -32.1423 8.53113 87.1344
lradius 26.0251
lwrist -6.46875
lhand -19.365 25.4401
lfingers 7.12502
lthumb 6.9528 55.3059
rfemur -3.03253 9.11594 30.4663
rtibia 26.0776
rfoot -14.9185 -3.73376
rtoes 2.21936
lfemur -27.5737 3.54284 -15.1095
ltibia 60.3888
lfoot -9.57047 1.44258
ltoes -8.93346
9
root 12.4996 17.3818 -25.8107 -1.58544 -2.25227 -2.93614
lowerback 7.12906 -0.716898 2.36609
upperback -0.69782 -0.533606 4.65752
thorax -4.71122 -0.26448 3.5817
lowerneck -13.2951 -3.85382 -9.56127
upperneck 21.4898 -4.0961 3.90737
head 9.24461 -2.28328 2.44514
rclavicle -6.96678e-015 1.43125e-014
rhumerus -35.7336 -15.3523 -74.8422
rradius 31.4814
rwrist 4.38278
rhand -17.3162 9.64497
rfingers 7.12502
rthumb 8.93021 -20.146
lclavicle -6.96678e-015 1.43125e-014
lhumerus -31.9855 8.93177 87.1838
lradius 25.6712
lwrist -6.38552
lhand -19.7381 23.4935
lfingers 7.12502
lthumb 6.59263 53.3709
rfemur -2.23976 9.02785 30.746
rtibia 25.8
rfoot -15.2643 -4.32065
rtoes 0.139464
lfemur -28.9492 3.55823 -15.0774
ltibia 58.627
lfoot -9.93856 2.52271
ltoes -8.46896
